<svg xmlns="http://www.w3.org/2000/svg" width="1600" height="900" viewBox="0 0 1600 900">
<title>Actual RTL work-stealing event and MatVec execution timeline</title>
<desc>Three jobs accumulate in local queue one, are stolen by cluster zero, and complete through the real DecodeMatVecInt8 datapath.</desc>
<rect width="1600" height="900" fill="#fbfcfe"/>
<defs><marker id="arrow" markerWidth="8" markerHeight="8" refX="6" refY="3" orient="auto"><path d="M0,0 L0,6 L7,3 z" fill="#d46a3a"/></marker></defs>
<text x="70" y="65" font-family="sans-serif" font-size="30" font-weight="700" fill="#18212f">Actual RTL temporal evidence · S3 to real MatVec</text>
<text x="70" y="100" font-family="sans-serif" font-size="18" fill="#667085">Verilator VCD · 3 exact stolen jobs · evidence harness only</text>
<line x1="230.0" y1="125" x2="230.0" y2="800" stroke="#d9dee8" stroke-width="1"/>
<text x="230.0" y="830" text-anchor="middle" font-family="sans-serif" font-size="14" fill="#667085">0</text>
<line x1="347.5" y1="125" x2="347.5" y2="800" stroke="#d9dee8" stroke-width="1"/>
<text x="347.5" y="830" text-anchor="middle" font-family="sans-serif" font-size="14" fill="#667085">20</text>
<line x1="465.0" y1="125" x2="465.0" y2="800" stroke="#d9dee8" stroke-width="1"/>
<text x="465.0" y="830" text-anchor="middle" font-family="sans-serif" font-size="14" fill="#667085">40</text>
<line x1="582.5" y1="125" x2="582.5" y2="800" stroke="#d9dee8" stroke-width="1"/>
<text x="582.5" y="830" text-anchor="middle" font-family="sans-serif" font-size="14" fill="#667085">60</text>
<line x1="700.0" y1="125" x2="700.0" y2="800" stroke="#d9dee8" stroke-width="1"/>
<text x="700.0" y="830" text-anchor="middle" font-family="sans-serif" font-size="14" fill="#667085">80</text>
<line x1="817.4" y1="125" x2="817.4" y2="800" stroke="#d9dee8" stroke-width="1"/>
<text x="817.4" y="830" text-anchor="middle" font-family="sans-serif" font-size="14" fill="#667085">100</text>
<line x1="934.9" y1="125" x2="934.9" y2="800" stroke="#d9dee8" stroke-width="1"/>
<text x="934.9" y="830" text-anchor="middle" font-family="sans-serif" font-size="14" fill="#667085">120</text>
<line x1="1052.4" y1="125" x2="1052.4" y2="800" stroke="#d9dee8" stroke-width="1"/>
<text x="1052.4" y="830" text-anchor="middle" font-family="sans-serif" font-size="14" fill="#667085">140</text>
<line x1="1169.9" y1="125" x2="1169.9" y2="800" stroke="#d9dee8" stroke-width="1"/>
<text x="1169.9" y="830" text-anchor="middle" font-family="sans-serif" font-size="14" fill="#667085">160</text>
<line x1="1287.4" y1="125" x2="1287.4" y2="800" stroke="#d9dee8" stroke-width="1"/>
<text x="1287.4" y="830" text-anchor="middle" font-family="sans-serif" font-size="14" fill="#667085">180</text>
<line x1="1404.9" y1="125" x2="1404.9" y2="800" stroke="#d9dee8" stroke-width="1"/>
<text x="1404.9" y="830" text-anchor="middle" font-family="sans-serif" font-size="14" fill="#667085">200</text>
<line x1="1522.4" y1="125" x2="1522.4" y2="800" stroke="#d9dee8" stroke-width="1"/>
<text x="1522.4" y="830" text-anchor="middle" font-family="sans-serif" font-size="14" fill="#667085">220</text>
<text x="885" y="865" text-anchor="middle" font-family="sans-serif" font-size="16" fill="#667085">cycle</text>
<text x="205" y="167" text-anchor="end" font-family="sans-serif" font-size="17" fill="#18212f">input valid/ready</text>
<line x1="230" y1="185" x2="1540" y2="185" stroke="#d9dee8" stroke-width="1"/>
<rect x="230.0" y="142" width="5.9" height="36" fill="#3568a8" opacity="0.86"/>
<rect x="235.9" y="142" width="5.9" height="36" fill="#3568a8" opacity="0.86"/>
<rect x="241.7" y="142" width="5.9" height="36" fill="#3568a8" opacity="0.86"/>
<text x="205" y="282" text-anchor="end" font-family="sans-serif" font-size="17" fill="#18212f">victim queue occupancy</text>
<line x1="230" y1="300" x2="1540" y2="300" stroke="#d9dee8" stroke-width="1"/>
<polyline points="230.0,310.0 235.9,301.0 241.7,292.0 247.6,283.0 253.5,283.0 259.4,283.0 265.2,283.0 271.1,283.0 277.0,283.0 282.9,283.0 288.7,283.0 294.6,283.0 300.5,283.0 306.4,283.0 312.2,283.0 318.1,283.0 324.0,283.0 329.9,292.0 335.7,301.0 341.6,310.0 347.5,310.0 353.4,310.0 359.2,310.0 365.1,310.0 371.0,310.0 376.9,310.0 382.7,310.0 388.6,310.0 394.5,310.0 400.4,310.0 406.2,310.0 412.1,310.0 418.0,310.0 423.9,310.0 429.7,310.0 435.6,310.0 441.5,310.0 447.4,310.0 453.2,310.0 459.1,310.0 465.0,310.0 470.9,310.0 476.7,310.0 482.6,310.0 488.5,310.0 494.3,310.0 500.2,310.0 506.1,310.0 512.0,310.0 517.8,310.0 523.7,310.0 529.6,310.0 535.5,310.0 541.3,310.0 547.2,310.0 553.1,310.0 559.0,310.0 564.8,310.0 570.7,310.0 576.6,310.0 582.5,310.0 588.3,310.0 594.2,310.0 600.1,310.0 606.0,310.0 611.8,310.0 617.7,310.0 623.6,310.0 629.5,310.0 635.3,310.0 641.2,310.0 647.1,310.0 653.0,310.0 658.8,310.0 664.7,310.0 670.6,310.0 676.5,310.0 682.3,310.0 688.2,310.0 694.1,310.0 700.0,310.0 705.8,310.0 711.7,310.0 717.6,310.0 723.5,310.0 729.3,310.0 735.2,310.0 741.1,310.0 747.0,310.0 752.8,310.0 758.7,310.0 764.6,310.0 770.4,310.0 776.3,310.0 782.2,310.0 788.1,310.0 793.9,310.0 799.8,310.0 805.7,310.0 811.6,310.0 817.4,310.0 823.3,310.0 829.2,310.0 835.1,310.0 840.9,310.0 846.8,310.0 852.7,310.0 858.6,310.0 864.4,310.0 870.3,310.0 876.2,310.0 882.1,310.0 887.9,310.0 893.8,310.0 899.7,310.0 905.6,310.0 911.4,310.0 917.3,310.0 923.2,310.0 929.1,310.0 934.9,310.0 940.8,310.0 946.7,310.0 952.6,310.0 958.4,310.0 964.3,310.0 970.2,310.0 976.1,310.0 981.9,310.0 987.8,310.0 993.7,310.0 999.6,310.0 1005.4,310.0 1011.3,310.0 1017.2,310.0 1023.0,310.0 1028.9,310.0 1034.8,310.0 1040.7,310.0 1046.5,310.0 1052.4,310.0 1058.3,310.0 1064.2,310.0 1070.0,310.0 1075.9,310.0 1081.8,310.0 1087.7,310.0 1093.5,310.0 1099.4,310.0 1105.3,310.0 1111.2,310.0 1117.0,310.0 1122.9,310.0 1128.8,310.0 1134.7,310.0 1140.5,310.0 1146.4,310.0 1152.3,310.0 1158.2,310.0 1164.0,310.0 1169.9,310.0 1175.8,310.0 1181.7,310.0 1187.5,310.0 1193.4,310.0 1199.3,310.0 1205.2,310.0 1211.0,310.0 1216.9,310.0 1222.8,310.0 1228.7,310.0 1234.5,310.0 1240.4,310.0 1246.3,310.0 1252.2,310.0 1258.0,310.0 1263.9,310.0 1269.8,310.0 1275.7,310.0 1281.5,310.0 1287.4,310.0 1293.3,310.0 1299.1,310.0 1305.0,310.0 1310.9,310.0 1316.8,310.0 1322.6,310.0 1328.5,310.0 1334.4,310.0 1340.3,310.0 1346.1,310.0 1352.0,310.0 1357.9,310.0 1363.8,310.0 1369.6,310.0 1375.5,310.0 1381.4,310.0 1387.3,310.0 1393.1,310.0 1399.0,310.0 1404.9,310.0 1410.8,310.0 1416.6,310.0 1422.5,310.0 1428.4,310.0 1434.3,310.0 1440.1,310.0 1446.0,310.0 1451.9,310.0 1457.8,310.0 1463.6,310.0 1469.5,310.0 1475.4,310.0 1481.3,310.0 1487.1,310.0 1493.0,310.0 1498.9,310.0 1504.8,310.0 1510.6,310.0 1516.5,310.0 1522.4,310.0 1528.3,310.0 1534.1,310.0 1540.0,310.0" fill="none" stroke="#c28b2c" stroke-width="4"/>
<text x="205" y="397" text-anchor="end" font-family="sans-serif" font-size="17" fill="#18212f">eligible</text>
<line x1="230" y1="415" x2="1540" y2="415" stroke="#d9dee8" stroke-width="1"/>
<rect x="324.0" y="372" width="5.9" height="36" fill="#738b42" opacity="0.86"/>
<rect x="329.9" y="372" width="5.9" height="36" fill="#738b42" opacity="0.86"/>
<rect x="335.7" y="372" width="5.9" height="36" fill="#738b42" opacity="0.86"/>
<text x="205" y="512" text-anchor="end" font-family="sans-serif" font-size="17" fill="#18212f">steal event</text>
<line x1="230" y1="530" x2="1540" y2="530" stroke="#d9dee8" stroke-width="1"/>
<line x1="324.0" y1="480" x2="324.0" y2="535" stroke="#d46a3a" stroke-width="5"/>
<line x1="329.9" y1="480" x2="329.9" y2="535" stroke="#d46a3a" stroke-width="5"/>
<line x1="335.7" y1="480" x2="335.7" y2="535" stroke="#d46a3a" stroke-width="5"/>
<text x="205" y="627" text-anchor="end" font-family="sans-serif" font-size="17" fill="#18212f">MatVec active C0</text>
<line x1="230" y1="645" x2="1540" y2="645" stroke="#d9dee8" stroke-width="1"/>
<rect x="341.6" y="602" width="5.9" height="36" fill="#3568a8" opacity="0.86"/>
<rect x="347.5" y="602" width="5.9" height="36" fill="#3568a8" opacity="0.86"/>
<rect x="353.4" y="602" width="5.9" height="36" fill="#3568a8" opacity="0.86"/>
<rect x="359.2" y="602" width="5.9" height="36" fill="#3568a8" opacity="0.86"/>
<rect x="365.1" y="602" width="5.9" height="36" fill="#3568a8" opacity="0.86"/>
<rect x="371.0" y="602" width="5.9" height="36" fill="#3568a8" opacity="0.86"/>
<rect x="376.9" y="602" width="5.9" height="36" fill="#3568a8" opacity="0.86"/>
<rect x="382.7" y="602" width="5.9" height="36" fill="#3568a8" opacity="0.86"/>
<rect x="388.6" y="602" width="5.9" height="36" fill="#3568a8" opacity="0.86"/>
<rect x="394.5" y="602" width="5.9" height="36" fill="#3568a8" opacity="0.86"/>
<rect x="400.4" y="602" width="5.9" height="36" fill="#3568a8" opacity="0.86"/>
<rect x="406.2" y="602" width="5.9" height="36" fill="#3568a8" opacity="0.86"/>
<rect x="412.1" y="602" width="5.9" height="36" fill="#3568a8" opacity="0.86"/>
<rect x="418.0" y="602" width="5.9" height="36" fill="#3568a8" opacity="0.86"/>
<rect x="423.9" y="602" width="5.9" height="36" fill="#3568a8" opacity="0.86"/>
<rect x="429.7" y="602" width="5.9" height="36" fill="#3568a8" opacity="0.86"/>
<rect x="435.6" y="602" width="5.9" height="36" fill="#3568a8" opacity="0.86"/>
<rect x="441.5" y="602" width="5.9" height="36" fill="#3568a8" opacity="0.86"/>
<rect x="447.4" y="602" width="5.9" height="36" fill="#3568a8" opacity="0.86"/>
<rect x="453.2" y="602" width="5.9" height="36" fill="#3568a8" opacity="0.86"/>
<rect x="459.1" y="602" width="5.9" height="36" fill="#3568a8" opacity="0.86"/>
<rect x="465.0" y="602" width="5.9" height="36" fill="#3568a8" opacity="0.86"/>
<rect x="470.9" y="602" width="5.9" height="36" fill="#3568a8" opacity="0.86"/>
<rect x="476.7" y="602" width="5.9" height="36" fill="#3568a8" opacity="0.86"/>
<rect x="482.6" y="602" width="5.9" height="36" fill="#3568a8" opacity="0.86"/>
<rect x="488.5" y="602" width="5.9" height="36" fill="#3568a8" opacity="0.86"/>
<rect x="494.3" y="602" width="5.9" height="36" fill="#3568a8" opacity="0.86"/>
<rect x="500.2" y="602" width="5.9" height="36" fill="#3568a8" opacity="0.86"/>
<rect x="506.1" y="602" width="5.9" height="36" fill="#3568a8" opacity="0.86"/>
<rect x="512.0" y="602" width="5.9" height="36" fill="#3568a8" opacity="0.86"/>
<rect x="517.8" y="602" width="5.9" height="36" fill="#3568a8" opacity="0.86"/>
<rect x="523.7" y="602" width="5.9" height="36" fill="#3568a8" opacity="0.86"/>
<rect x="529.6" y="602" width="5.9" height="36" fill="#3568a8" opacity="0.86"/>
<rect x="535.5" y="602" width="5.9" height="36" fill="#3568a8" opacity="0.86"/>
<rect x="541.3" y="602" width="5.9" height="36" fill="#3568a8" opacity="0.86"/>
<rect x="547.2" y="602" width="5.9" height="36" fill="#3568a8" opacity="0.86"/>
<rect x="553.1" y="602" width="5.9" height="36" fill="#3568a8" opacity="0.86"/>
<rect x="559.0" y="602" width="5.9" height="36" fill="#3568a8" opacity="0.86"/>
<rect x="564.8" y="602" width="5.9" height="36" fill="#3568a8" opacity="0.86"/>
<rect x="570.7" y="602" width="5.9" height="36" fill="#3568a8" opacity="0.86"/>
<rect x="576.6" y="602" width="5.9" height="36" fill="#3568a8" opacity="0.86"/>
<rect x="582.5" y="602" width="5.9" height="36" fill="#3568a8" opacity="0.86"/>
<rect x="588.3" y="602" width="5.9" height="36" fill="#3568a8" opacity="0.86"/>
<rect x="594.2" y="602" width="5.9" height="36" fill="#3568a8" opacity="0.86"/>
<rect x="600.1" y="602" width="5.9" height="36" fill="#3568a8" opacity="0.86"/>
<rect x="606.0" y="602" width="5.9" height="36" fill="#3568a8" opacity="0.86"/>
<rect x="611.8" y="602" width="5.9" height="36" fill="#3568a8" opacity="0.86"/>
<rect x="617.7" y="602" width="5.9" height="36" fill="#3568a8" opacity="0.86"/>
<rect x="623.6" y="602" width="5.9" height="36" fill="#3568a8" opacity="0.86"/>
<rect x="629.5" y="602" width="5.9" height="36" fill="#3568a8" opacity="0.86"/>
<rect x="635.3" y="602" width="5.9" height="36" fill="#3568a8" opacity="0.86"/>
<rect x="641.2" y="602" width="5.9" height="36" fill="#3568a8" opacity="0.86"/>
<rect x="647.1" y="602" width="5.9" height="36" fill="#3568a8" opacity="0.86"/>
<rect x="653.0" y="602" width="5.9" height="36" fill="#3568a8" opacity="0.86"/>
<rect x="658.8" y="602" width="5.9" height="36" fill="#3568a8" opacity="0.86"/>
<rect x="664.7" y="602" width="5.9" height="36" fill="#3568a8" opacity="0.86"/>
<rect x="670.6" y="602" width="5.9" height="36" fill="#3568a8" opacity="0.86"/>
<rect x="676.5" y="602" width="5.9" height="36" fill="#3568a8" opacity="0.86"/>
<rect x="682.3" y="602" width="5.9" height="36" fill="#3568a8" opacity="0.86"/>
<rect x="688.2" y="602" width="5.9" height="36" fill="#3568a8" opacity="0.86"/>
<rect x="694.1" y="602" width="5.9" height="36" fill="#3568a8" opacity="0.86"/>
<rect x="700.0" y="602" width="5.9" height="36" fill="#3568a8" opacity="0.86"/>
<rect x="705.8" y="602" width="5.9" height="36" fill="#3568a8" opacity="0.86"/>
<rect x="711.7" y="602" width="5.9" height="36" fill="#3568a8" opacity="0.86"/>
<rect x="717.6" y="602" width="5.9" height="36" fill="#3568a8" opacity="0.86"/>
<rect x="723.5" y="602" width="5.9" height="36" fill="#3568a8" opacity="0.86"/>
<rect x="729.3" y="602" width="5.9" height="36" fill="#3568a8" opacity="0.86"/>
<rect x="741.1" y="602" width="5.9" height="36" fill="#3568a8" opacity="0.86"/>
<rect x="747.0" y="602" width="5.9" height="36" fill="#3568a8" opacity="0.86"/>
<rect x="752.8" y="602" width="5.9" height="36" fill="#3568a8" opacity="0.86"/>
<rect x="758.7" y="602" width="5.9" height="36" fill="#3568a8" opacity="0.86"/>
<rect x="764.6" y="602" width="5.9" height="36" fill="#3568a8" opacity="0.86"/>
<rect x="770.4" y="602" width="5.9" height="36" fill="#3568a8" opacity="0.86"/>
<rect x="776.3" y="602" width="5.9" height="36" fill="#3568a8" opacity="0.86"/>
<rect x="782.2" y="602" width="5.9" height="36" fill="#3568a8" opacity="0.86"/>
<rect x="788.1" y="602" width="5.9" height="36" fill="#3568a8" opacity="0.86"/>
<rect x="793.9" y="602" width="5.9" height="36" fill="#3568a8" opacity="0.86"/>
<rect x="799.8" y="602" width="5.9" height="36" fill="#3568a8" opacity="0.86"/>
<rect x="805.7" y="602" width="5.9" height="36" fill="#3568a8" opacity="0.86"/>
<rect x="811.6" y="602" width="5.9" height="36" fill="#3568a8" opacity="0.86"/>
<rect x="817.4" y="602" width="5.9" height="36" fill="#3568a8" opacity="0.86"/>
<rect x="823.3" y="602" width="5.9" height="36" fill="#3568a8" opacity="0.86"/>
<rect x="829.2" y="602" width="5.9" height="36" fill="#3568a8" opacity="0.86"/>
<rect x="835.1" y="602" width="5.9" height="36" fill="#3568a8" opacity="0.86"/>
<rect x="840.9" y="602" width="5.9" height="36" fill="#3568a8" opacity="0.86"/>
<rect x="846.8" y="602" width="5.9" height="36" fill="#3568a8" opacity="0.86"/>
<rect x="852.7" y="602" width="5.9" height="36" fill="#3568a8" opacity="0.86"/>
<rect x="858.6" y="602" width="5.9" height="36" fill="#3568a8" opacity="0.86"/>
<rect x="864.4" y="602" width="5.9" height="36" fill="#3568a8" opacity="0.86"/>
<rect x="870.3" y="602" width="5.9" height="36" fill="#3568a8" opacity="0.86"/>
<rect x="876.2" y="602" width="5.9" height="36" fill="#3568a8" opacity="0.86"/>
<rect x="882.1" y="602" width="5.9" height="36" fill="#3568a8" opacity="0.86"/>
<rect x="887.9" y="602" width="5.9" height="36" fill="#3568a8" opacity="0.86"/>
<rect x="893.8" y="602" width="5.9" height="36" fill="#3568a8" opacity="0.86"/>
<rect x="899.7" y="602" width="5.9" height="36" fill="#3568a8" opacity="0.86"/>
<rect x="905.6" y="602" width="5.9" height="36" fill="#3568a8" opacity="0.86"/>
<rect x="911.4" y="602" width="5.9" height="36" fill="#3568a8" opacity="0.86"/>
<rect x="917.3" y="602" width="5.9" height="36" fill="#3568a8" opacity="0.86"/>
<rect x="923.2" y="602" width="5.9" height="36" fill="#3568a8" opacity="0.86"/>
<rect x="929.1" y="602" width="5.9" height="36" fill="#3568a8" opacity="0.86"/>
<rect x="934.9" y="602" width="5.9" height="36" fill="#3568a8" opacity="0.86"/>
<rect x="940.8" y="602" width="5.9" height="36" fill="#3568a8" opacity="0.86"/>
<rect x="946.7" y="602" width="5.9" height="36" fill="#3568a8" opacity="0.86"/>
<rect x="952.6" y="602" width="5.9" height="36" fill="#3568a8" opacity="0.86"/>
<rect x="958.4" y="602" width="5.9" height="36" fill="#3568a8" opacity="0.86"/>
<rect x="964.3" y="602" width="5.9" height="36" fill="#3568a8" opacity="0.86"/>
<rect x="970.2" y="602" width="5.9" height="36" fill="#3568a8" opacity="0.86"/>
<rect x="976.1" y="602" width="5.9" height="36" fill="#3568a8" opacity="0.86"/>
<rect x="981.9" y="602" width="5.9" height="36" fill="#3568a8" opacity="0.86"/>
<rect x="987.8" y="602" width="5.9" height="36" fill="#3568a8" opacity="0.86"/>
<rect x="993.7" y="602" width="5.9" height="36" fill="#3568a8" opacity="0.86"/>
<rect x="999.6" y="602" width="5.9" height="36" fill="#3568a8" opacity="0.86"/>
<rect x="1005.4" y="602" width="5.9" height="36" fill="#3568a8" opacity="0.86"/>
<rect x="1011.3" y="602" width="5.9" height="36" fill="#3568a8" opacity="0.86"/>
<rect x="1017.2" y="602" width="5.9" height="36" fill="#3568a8" opacity="0.86"/>
<rect x="1023.0" y="602" width="5.9" height="36" fill="#3568a8" opacity="0.86"/>
<rect x="1028.9" y="602" width="5.9" height="36" fill="#3568a8" opacity="0.86"/>
<rect x="1034.8" y="602" width="5.9" height="36" fill="#3568a8" opacity="0.86"/>
<rect x="1040.7" y="602" width="5.9" height="36" fill="#3568a8" opacity="0.86"/>
<rect x="1046.5" y="602" width="5.9" height="36" fill="#3568a8" opacity="0.86"/>
<rect x="1052.4" y="602" width="5.9" height="36" fill="#3568a8" opacity="0.86"/>
<rect x="1058.3" y="602" width="5.9" height="36" fill="#3568a8" opacity="0.86"/>
<rect x="1064.2" y="602" width="5.9" height="36" fill="#3568a8" opacity="0.86"/>
<rect x="1070.0" y="602" width="5.9" height="36" fill="#3568a8" opacity="0.86"/>
<rect x="1075.9" y="602" width="5.9" height="36" fill="#3568a8" opacity="0.86"/>
<rect x="1081.8" y="602" width="5.9" height="36" fill="#3568a8" opacity="0.86"/>
<rect x="1087.7" y="602" width="5.9" height="36" fill="#3568a8" opacity="0.86"/>
<rect x="1093.5" y="602" width="5.9" height="36" fill="#3568a8" opacity="0.86"/>
<rect x="1099.4" y="602" width="5.9" height="36" fill="#3568a8" opacity="0.86"/>
<rect x="1105.3" y="602" width="5.9" height="36" fill="#3568a8" opacity="0.86"/>
<rect x="1111.2" y="602" width="5.9" height="36" fill="#3568a8" opacity="0.86"/>
<rect x="1117.0" y="602" width="5.9" height="36" fill="#3568a8" opacity="0.86"/>
<rect x="1122.9" y="602" width="5.9" height="36" fill="#3568a8" opacity="0.86"/>
<rect x="1128.8" y="602" width="5.9" height="36" fill="#3568a8" opacity="0.86"/>
<rect x="1140.5" y="602" width="5.9" height="36" fill="#3568a8" opacity="0.86"/>
<rect x="1146.4" y="602" width="5.9" height="36" fill="#3568a8" opacity="0.86"/>
<rect x="1152.3" y="602" width="5.9" height="36" fill="#3568a8" opacity="0.86"/>
<rect x="1158.2" y="602" width="5.9" height="36" fill="#3568a8" opacity="0.86"/>
<rect x="1164.0" y="602" width="5.9" height="36" fill="#3568a8" opacity="0.86"/>
<rect x="1169.9" y="602" width="5.9" height="36" fill="#3568a8" opacity="0.86"/>
<rect x="1175.8" y="602" width="5.9" height="36" fill="#3568a8" opacity="0.86"/>
<rect x="1181.7" y="602" width="5.9" height="36" fill="#3568a8" opacity="0.86"/>
<rect x="1187.5" y="602" width="5.9" height="36" fill="#3568a8" opacity="0.86"/>
<rect x="1193.4" y="602" width="5.9" height="36" fill="#3568a8" opacity="0.86"/>
<rect x="1199.3" y="602" width="5.9" height="36" fill="#3568a8" opacity="0.86"/>
<rect x="1205.2" y="602" width="5.9" height="36" fill="#3568a8" opacity="0.86"/>
<rect x="1211.0" y="602" width="5.9" height="36" fill="#3568a8" opacity="0.86"/>
<rect x="1216.9" y="602" width="5.9" height="36" fill="#3568a8" opacity="0.86"/>
<rect x="1222.8" y="602" width="5.9" height="36" fill="#3568a8" opacity="0.86"/>
<rect x="1228.7" y="602" width="5.9" height="36" fill="#3568a8" opacity="0.86"/>
<rect x="1234.5" y="602" width="5.9" height="36" fill="#3568a8" opacity="0.86"/>
<rect x="1240.4" y="602" width="5.9" height="36" fill="#3568a8" opacity="0.86"/>
<rect x="1246.3" y="602" width="5.9" height="36" fill="#3568a8" opacity="0.86"/>
<rect x="1252.2" y="602" width="5.9" height="36" fill="#3568a8" opacity="0.86"/>
<rect x="1258.0" y="602" width="5.9" height="36" fill="#3568a8" opacity="0.86"/>
<rect x="1263.9" y="602" width="5.9" height="36" fill="#3568a8" opacity="0.86"/>
<rect x="1269.8" y="602" width="5.9" height="36" fill="#3568a8" opacity="0.86"/>
<rect x="1275.7" y="602" width="5.9" height="36" fill="#3568a8" opacity="0.86"/>
<rect x="1281.5" y="602" width="5.9" height="36" fill="#3568a8" opacity="0.86"/>
<rect x="1287.4" y="602" width="5.9" height="36" fill="#3568a8" opacity="0.86"/>
<rect x="1293.3" y="602" width="5.9" height="36" fill="#3568a8" opacity="0.86"/>
<rect x="1299.1" y="602" width="5.9" height="36" fill="#3568a8" opacity="0.86"/>
<rect x="1305.0" y="602" width="5.9" height="36" fill="#3568a8" opacity="0.86"/>
<rect x="1310.9" y="602" width="5.9" height="36" fill="#3568a8" opacity="0.86"/>
<rect x="1316.8" y="602" width="5.9" height="36" fill="#3568a8" opacity="0.86"/>
<rect x="1322.6" y="602" width="5.9" height="36" fill="#3568a8" opacity="0.86"/>
<rect x="1328.5" y="602" width="5.9" height="36" fill="#3568a8" opacity="0.86"/>
<rect x="1334.4" y="602" width="5.9" height="36" fill="#3568a8" opacity="0.86"/>
<rect x="1340.3" y="602" width="5.9" height="36" fill="#3568a8" opacity="0.86"/>
<rect x="1346.1" y="602" width="5.9" height="36" fill="#3568a8" opacity="0.86"/>
<rect x="1352.0" y="602" width="5.9" height="36" fill="#3568a8" opacity="0.86"/>
<rect x="1357.9" y="602" width="5.9" height="36" fill="#3568a8" opacity="0.86"/>
<rect x="1363.8" y="602" width="5.9" height="36" fill="#3568a8" opacity="0.86"/>
<rect x="1369.6" y="602" width="5.9" height="36" fill="#3568a8" opacity="0.86"/>
<rect x="1375.5" y="602" width="5.9" height="36" fill="#3568a8" opacity="0.86"/>
<rect x="1381.4" y="602" width="5.9" height="36" fill="#3568a8" opacity="0.86"/>
<rect x="1387.3" y="602" width="5.9" height="36" fill="#3568a8" opacity="0.86"/>
<rect x="1393.1" y="602" width="5.9" height="36" fill="#3568a8" opacity="0.86"/>
<rect x="1399.0" y="602" width="5.9" height="36" fill="#3568a8" opacity="0.86"/>
<rect x="1404.9" y="602" width="5.9" height="36" fill="#3568a8" opacity="0.86"/>
<rect x="1410.8" y="602" width="5.9" height="36" fill="#3568a8" opacity="0.86"/>
<rect x="1416.6" y="602" width="5.9" height="36" fill="#3568a8" opacity="0.86"/>
<rect x="1422.5" y="602" width="5.9" height="36" fill="#3568a8" opacity="0.86"/>
<rect x="1428.4" y="602" width="5.9" height="36" fill="#3568a8" opacity="0.86"/>
<rect x="1434.3" y="602" width="5.9" height="36" fill="#3568a8" opacity="0.86"/>
<rect x="1440.1" y="602" width="5.9" height="36" fill="#3568a8" opacity="0.86"/>
<rect x="1446.0" y="602" width="5.9" height="36" fill="#3568a8" opacity="0.86"/>
<rect x="1451.9" y="602" width="5.9" height="36" fill="#3568a8" opacity="0.86"/>
<rect x="1457.8" y="602" width="5.9" height="36" fill="#3568a8" opacity="0.86"/>
<rect x="1463.6" y="602" width="5.9" height="36" fill="#3568a8" opacity="0.86"/>
<rect x="1469.5" y="602" width="5.9" height="36" fill="#3568a8" opacity="0.86"/>
<rect x="1475.4" y="602" width="5.9" height="36" fill="#3568a8" opacity="0.86"/>
<rect x="1481.3" y="602" width="5.9" height="36" fill="#3568a8" opacity="0.86"/>
<rect x="1487.1" y="602" width="5.9" height="36" fill="#3568a8" opacity="0.86"/>
<rect x="1493.0" y="602" width="5.9" height="36" fill="#3568a8" opacity="0.86"/>
<rect x="1498.9" y="602" width="5.9" height="36" fill="#3568a8" opacity="0.86"/>
<rect x="1504.8" y="602" width="5.9" height="36" fill="#3568a8" opacity="0.86"/>
<rect x="1510.6" y="602" width="5.9" height="36" fill="#3568a8" opacity="0.86"/>
<rect x="1516.5" y="602" width="5.9" height="36" fill="#3568a8" opacity="0.86"/>
<rect x="1522.4" y="602" width="5.9" height="36" fill="#3568a8" opacity="0.86"/>
<rect x="1528.3" y="602" width="5.9" height="36" fill="#3568a8" opacity="0.86"/>
<text x="205" y="742" text-anchor="end" font-family="sans-serif" font-size="17" fill="#18212f">MatVec start/result</text>
<line x1="230" y1="760" x2="1540" y2="760" stroke="#d9dee8" stroke-width="1"/>
<line x1="335.7" y1="710" x2="335.7" y2="765" stroke="#ad5f78" stroke-width="5"/>
<line x1="735.2" y1="710" x2="735.2" y2="765" stroke="#ad5f78" stroke-width="5"/>
<line x1="1134.7" y1="710" x2="1134.7" y2="765" stroke="#ad5f78" stroke-width="5"/>
<circle cx="729.3" cy="735" r="8" fill="#18212f"/>
<circle cx="1128.8" cy="735" r="8" fill="#18212f"/>
<circle cx="1528.3" cy="735" r="8" fill="#18212f"/>
<path d="M329.9,470 L329.9,430" stroke="#d46a3a" stroke-width="2" marker-end="url(#arrow)"/>
<text x="353.7" y="420" font-family="sans-serif" font-size="14" fill="#18212f">cycles 16–18 · jobs 1, 5, 9 · Q1 to C0</text>
<rect x="70" y="842" width="16" height="16" fill="#ad5f78"/>
<text x="94" y="856" font-family="sans-serif" font-size="14" fill="#18212f">vertical tick: MatVec start</text>
<circle cx="310" cy="850" r="7" fill="#18212f"/>
<text x="323" y="856" font-family="sans-serif" font-size="14" fill="#18212f">dot: MatVec result</text>
</svg>
